<?xml version="1.0" standalone="no"?>
<!DOCTYPE svg PUBLIC "-//W3C//DTD SVG 1.1//EN" "http://www.w3.org/Graphics/SVG/1.1/DTD/svg11.dtd" >
<!--
2013-9-30: Created.
-->
<svg>
<metadata>
Created by iconfont
</metadata>
<defs>

<font id="iconfont" horiz-adv-x="1024" >
  <font-face
    font-family="iconfont"
    font-weight="500"
    font-stretch="normal"
    units-per-em="1024"
    ascent="896"
    descent="-128"
  />
    <missing-glyph />
    
    <glyph glyph-name="jinrituijian" unicode="&#59106;" d="M828.952381-79.238095 828.952381 213.478149C828.952381 240.28614 807.208082 262.095238 780.385109 262.095238L609.329176 262.095238C582.709053 262.095238 560.761905 240.328626 560.761905 213.478149L560.761905-79.238095 0-79.238095 0-128 1170.285714-128 1170.285714-79.238095 828.952381-79.238095 828.952381-79.238095ZM975.238095 505.904762 853.333333 505.904762 853.333333 505.904762 853.333333 579.052312C853.333333 592.610338 842.417615 603.428571 828.952381 603.428571 815.39328 603.428571 804.571429 592.514948 804.571429 579.052312L804.571429 505.904762 682.666667 505.904762 682.666667 579.052312C682.666667 592.610338 671.750949 603.428571 658.285714 603.428571 644.726613 603.428571 633.904762 592.514948 633.904762 579.052312L633.904762 505.904762 633.904762 505.904762 512 505.904762 512 505.904762 512 579.052312C512 592.610338 501.084282 603.428571 487.619048 603.428571 474.059947 603.428571 463.238095 592.514948 463.238095 579.052312L463.238095 505.904762 341.333333 505.904762 341.333333 579.052312C341.333333 592.610338 330.417615 603.428571 316.952381 603.428571 303.39328 603.428571 292.571429 592.514948 292.571429 579.052312L292.571429 505.904762 292.571429 505.904762 170.666667 505.904762 170.666667 505.904762 170.666667 579.052312C170.666667 592.610338 159.750949 603.428571 146.285714 603.428571 132.726613 603.428571 121.904762 592.514948 121.904762 579.052312L121.904762 505.904762 0 505.904762 0 774.176041C0 841.457557 54.498475 896 122.08896 896L1023.815802 896C1091.243666 896 1145.904762 841.348181 1145.904762 774.176041L1145.904762 505.904762 1024 505.904762 1024 579.052312C1024 592.610338 1013.084282 603.428571 999.619048 603.428571 986.059947 603.428571 975.238095 592.514948 975.238095 579.052312L975.238095 505.904762 975.238095 505.904762ZM609.52381 213.333333 780.190476 213.333333 780.190476-79.238095 609.52381-79.238095 609.52381 213.333333ZM975.238095 505.904762 1024 505.904762 1024-79.238095 975.238095-79.238095 975.238095 505.904762ZM121.904762 505.904762 170.666667 505.904762 170.666667-79.238095 121.904762-79.238095 121.904762 505.904762ZM743.619048 18.285714C763.816887 18.285714 780.190476 34.659301 780.190476 54.857143 780.190476 75.054985 763.816887 91.428571 743.619048 91.428571 723.421208 91.428571 707.047619 75.054985 707.047619 54.857143 707.047619 34.659301 723.421208 18.285714 743.619048 18.285714Z"  horiz-adv-x="1171" />

    
    <glyph glyph-name="fenxiang" unicode="&#58906;" d="M884.468878-127.903437 151.314235-127.903437C67.907936-127.903437 0-58.402212 0 27.056051L0 730.445147C0 815.855128 67.907936 885.380494 151.314235 885.380494L394.508172 885.380494C424.394423 885.380494 428.763899 893.153817 428.763899 862.615765 428.763899 832.101854 424.394423 842.482378 394.508172 842.482378L151.314235 842.482378C100.884203 840.575258 52.723403 827.370267 45.143207 749.709467L45.143207-15.069561C51.395661-61.443946 88.982812-82.832653 112.833876-82.832653L925.218467-82.832653C949.69719-83.822424 989.674276-42.855567 992.450462-15.407532 993.560937 11.726674 992.909137 278.530266 992.909137 278.530266 992.909137 277.99917 993.367811 302.526174 1015.48074 301.10187L1015.311755 301.463981C1023.736877 300.184521 1035.469283 301.198433 1038.052343 278.530266L1038.052343 30.097786C1038.052343-55.360477 967.899317-127.903437 884.468878-127.903437ZM880.099402 389.891556C870.829353 370.023717 855.162005 367.319953 834.956195 367.319953 817.309305 386.632555 832.928372 403.603503 834.956195 412.4873L970.361674 683.491384C966.981969 682.308487 928.791299 684.408733 925.218467 683.491384 753.988112 642.065853 584.206202 448.843273 541.597775 367.319953 510.552768 307.764717 456.477483 175.473395 451.335502 141.459076 447.376419 115.483626 428.208662 118.16325 428.763899 118.887472 407.495897 121.639518 403.512672 133.56505 406.192296 164.05482 406.723392 169.945163 448.728301 298.518809 496.454568 389.891556 538.387055 470.280261 721.953334 679.19433 947.790071 728.658731L699.550716 841.58917C672.585496 854.697598 643.351045 863.822803 654.43165 886.756517 659.984023 898.271656 672.7062 899.864946 699.550716 886.756517L992.909137 751.254475C1005.824439 744.905458 1010.725012 742.515523 1015.48074 728.658731 1020.30889 714.850221 1021.684913 696.744657 1015.48074 683.491384L880.099402 389.891556ZM834.956195 367.319953C840.58099 361.11578 827.134591 367.319953 834.956195 367.319953Z"  horiz-adv-x="1039" />

    
    <glyph glyph-name="iconset0219" unicode="&#58998;" d="M981.333333 576c0 4.266667-2.133333 8.533333-4.266667 12.8l0 0-2.133333 2.133333c0 0 0 2.133333-2.133333 2.133333L721.066667 844.8l0 0C716.8 849.066667 710.4 853.333333 704 853.333333L320 853.333333c-6.4 0-12.8-4.266667-17.066667-8.533333l0 0L49.066667 590.933333c0 0-2.133333 0-2.133333-2.133333l-2.133333-2.133333 0 0C44.8 584.533333 42.666667 580.266667 42.666667 576c0-4.266667 2.133333-8.533333 4.266667-12.8l0 0 448-640 0 0c4.266667-4.266667 10.666667-8.533333 17.066667-8.533333s12.8 4.266667 17.066667 8.533333l0 0 448 640 0 0C979.2 567.466667 981.333333 571.733333 981.333333 576zM695.466667 810.666667l213.333333-213.333333-192 0-106.666667 213.333333L695.466667 810.666667zM563.2 810.666667l106.666667-213.333333L354.133333 597.333333l106.666667 213.333333L563.2 810.666667zM328.533333 810.666667l85.333333 0-106.666667-213.333333-192 0L328.533333 810.666667zM104.533333 554.666667l198.4 0 149.333333-497.066667L104.533333 554.666667zM512 10.666667 347.733333 554.666667l326.4 0L512 10.666667zM569.6 57.6l149.333333 497.066667 198.4 0L569.6 57.6z"  horiz-adv-x="1024" />

    
    <glyph glyph-name="muying" unicode="&#58987;" d="M870.72 101.568c-50.432 0-91.328-40.512-91.328-90.432 0-49.984 40.896-90.496 91.328-90.496 50.432 0 91.328 40.512 91.328 90.496C961.984 61.056 921.152 101.568 870.72 101.568zM870.72-54.272c-36.48 0-66.176 29.312-66.176 65.344 0 36.032 29.696 65.344 66.176 65.344 36.48 0 66.176-29.312 66.176-65.344C936.896-24.96 907.2-54.272 870.72-54.272zM368.576 101.568c-50.432 0-91.328-40.512-91.328-90.432 0-49.984 40.896-90.496 91.328-90.496 50.432 0 91.328 40.512 91.328 90.496C459.84 61.056 418.944 101.568 368.576 101.568zM368.576-54.272c-36.48 0-66.176 29.312-66.176 65.344 0 36.032 29.696 65.344 66.176 65.344 36.48 0 66.176-29.312 66.176-65.344C434.752-24.96 405.056-54.272 368.576-54.272zM1020.032 475.008c-0.512 3.264-53.632 324.416-376.448 353.92l-13.76 1.28 0-344.512L380.096 485.696C366.272 795.2 8.64 846.912 4.992 847.36L1.664 822.464C5.12 822.016 341.12 773.44 354.88 485.696l-168.96 0 0-25.152 78.848 0c0.96-21.056 11.776-169.856 122.432-262.144 56.64-47.296 129.28-71.04 216.448-71.04 27.072 0 55.68 2.304 85.504 6.912 2.24 0.192 228.032 23.488 284.992 326.272l48.128 0L1020.032 475.008zM686.208 159.104c-119.232-18.24-214.208 1.28-282.688 58.368C303.744 300.608 291.328 438.72 289.984 460.544L948.48 460.544C893.824 181.76 695.488 160.064 686.208 159.104zM655.04 485.696l0 316.8c257.024-31.04 324.032-256.384 337.472-316.8L655.04 485.696z"  horiz-adv-x="1024" />

    
    <glyph glyph-name="webicon212" unicode="&#59018;" d="M896.32 559.008 523.648 186.336c-0.064-0.064-0.16-0.064-0.192-0.128-0.064-0.064-0.064-0.128-0.128-0.192-2.752-2.752-6.304-4.032-9.952-4.32-0.48-0.032-0.896-0.256-1.376-0.256-0.48 0-0.896 0.192-1.376 0.256-3.648 0.288-7.2 1.568-9.952 4.32-0.064 0.064-0.064 0.128-0.128 0.192-0.064 0.064-0.16 0.064-0.192 0.128L127.68 559.008c-6.432 6.432-6.592 16.704-0.32 22.976 6.24 6.24 16.512 6.112 22.976-0.32L512 219.936 873.696 581.632c6.432 6.432 16.704 6.592 22.976 0.32C902.912 575.712 902.752 565.44 896.32 559.008z"  horiz-adv-x="1024" />

    
    <glyph glyph-name="yanjing" unicode="&#58922;" d="M511.999488 62.948937c-191.853539 0-362.981035 121.969912-425.877527 303.516712-3.953032 11.307533-3.953032 23.662933 0 35.07382 62.869886 181.541683 234.021941 303.512618 425.877527 303.512618 191.831027 0 362.954429-121.969912 425.877527-303.512618 3.955078-11.410887 3.955078-23.76731 0-35.126009C874.953917 184.918849 703.803909 62.948937 511.999488 62.948937zM194.037786 383.948835c52.531424-128.618333 178.034812-213.791178 317.961702-213.791178 139.901307 0 265.405719 85.171822 317.965795 213.791178C777.406231 512.620379 651.899772 597.84439 511.999488 597.84439 372.072599 597.843366 246.56921 512.619356 194.037786 383.948835zM643.208832 383.948835c0-72.449056-58.759265-131.185808-131.210367-131.185808-72.450079 0-131.210367 58.735729-131.210367 131.185808 0 72.503291 58.760289 131.236973 131.210367 131.236973C584.449567 515.184785 643.208832 456.451102 643.208832 383.948835z"  horiz-adv-x="1024" />

    
    <glyph glyph-name="gouwuchekong" unicode="&#58884;" d="M332.8 105.472q19.456 0 36.864-7.168t30.208-19.968 20.48-30.208 7.68-36.864-7.68-36.864-20.48-30.208-30.208-20.48-36.864-7.68q-20.48 0-37.888 7.68t-30.208 20.48-20.48 30.208-7.68 36.864 7.68 36.864 20.48 30.208 30.208 19.968 37.888 7.168zM758.784 103.424q19.456 0 37.376-7.168t30.72-19.968 20.48-30.208 7.68-36.864-7.68-36.864-20.48-30.208-30.72-20.48-37.376-7.68-36.864 7.68-30.208 20.48-20.48 30.208-7.68 36.864 7.68 36.864 20.48 30.208 30.208 19.968 36.864 7.168zM930.816 685.056q28.672 0 44.544-7.68t22.528-18.944 6.144-24.064-3.584-22.016-13.312-37.888-22.016-62.976-23.552-68.096-18.944-53.248q-13.312-40.96-33.28-56.832t-49.664-15.872h-537.6l14.336-92.16h517.12q49.152 0 49.152-41.984 0-20.48-9.728-35.84t-38.4-14.336h-536.576q-20.48 0-34.304 9.216t-23.040 24.064-14.848 32.256-8.704 32.768q-1.024 6.144-5.632 29.696t-11.264 58.88-14.848 78.848-16.384 87.552q-19.456 103.424-44.032 230.4h-76.8q-15.36 0-25.6 7.68t-16.896 18.432-9.216 23.040-2.56 22.528q0 20.48 13.824 33.792t37.376 12.288h103.424q20.48 0 32.768-6.144t19.456-15.36 10.24-18.944 5.12-16.896q2.048-8.192 4.096-23.040t4.096-30.208q3.072-18.432 6.144-38.912h700.416zM892.928 593.92l-641.024 2.048 35.84-185.344 535.552-1.024z"  horiz-adv-x="1028" />

    
    <glyph glyph-name="shenghuo" unicode="&#58977;" d="M260.91-52.64c-102.27 0-185.47 83.2-185.47 185.47V510.2a60 60 0 0 0 60 60l502.43-0.18a60 60 0 0 0 60-60l-0.1-34.14 20.34-0.13c20.93-0.13 39-0.24 45.46-0.24 52.71 0 98-13.59 131.09-39.3 35.29-27.45 53.94-67.45 53.94-115.67a184.5 184.5 0 0 0-185-184.5c-6 0-33 0.16-59.1 0.32h-7.34l-0.07-6a185 185 0 0 0-53.83-128.78 182.82 182.82 0 0 0-130.66-54.31z m-138.3 180.37c0-73.5 59.79-133.29 133.29-133.29h261.73c72.91 0 132.23 59.8 132.23 133.29l0.88 395.09-528.21 0.18z m566.76 56l6-0.05c29.68-0.25 59.16-0.41 65.64-0.41 79.35 0 139.18 60 139.18 139.62 0 35-11.92 61.48-35.42 78.84-23.3 17.21-57.24 25.57-103.77 25.57-7.62 0-31.45 0.14-52.46 0.26l-18.6 0.11zM535.38 638c-14.75 0-26.75 12.83-26.75 28.59V792c0 15.77 12 28.59 26.75 28.59s26.74-12.77 26.74-28.59v-125.5c0-15.72-11.99-28.5-26.74-28.5z m-150.46 0c-14.75 0-26.75 12.83-26.75 28.59V792c0 15.77 12 28.59 26.75 28.59s26.75-12.77 26.75-28.59v-125.5c0-15.72-12-28.5-26.75-28.5z m-150.46 0c-14.75 0-26.74 12.83-26.74 28.59V792c0 15.77 12 28.59 26.74 28.59s26.75-12.77 26.75-28.59v-125.5c0-15.72-12-28.5-26.75-28.5z"  horiz-adv-x="1024" />

    
    <glyph glyph-name="yanjing1" unicode="&#58897;" d="M522.5812335583934 654.1001122504708c102.94218196588042 0 202.2179259298726-33.44915828261679 279.6078832137015-94.19914560999341 70.33912280299901-55.22213271630514 112.24928318972883-127.25345739436132 112.24928318972883-192.74160633631163 0-65.54455506518785-41.91016038672983-137.5758797432441-112.24928318972883-192.74160633631163-77.27714503735382-60.74998732737667-176.55288900134602-94.19914560999341-279.49507096722635-94.19914560999341-102.88577220705649 0-202.1615198066351 33.44915828261679-279.49506733164003 94.19914560999341C172.91626179346707 229.58348056092143 130.9496952834998 301.61480523897774 130.9496952834998 367.1593603041655 130.89328916026255 432.64750924611604 172.91626179346707 504.67883028858546 243.14256871440497 559.9009666404768 320.41971375175893 620.6509539678533 419.6954613513373 654.1001122504708 522.5812335583934 654.1001122504708z m0.05640612323750318-98.71167909603071c-73.61071067105195 0-144.6831203473113-21.99860256222477-199.961659186854-61.82171457564848-50.25834660878145-36.21308377035937-80.2666986536328-83.4818767628618-80.2666986536328-126.40735827462593 0-42.98188399941522 30.00835204485136-90.25067699191766 80.32310477687027-126.40735827462593 55.278538839542634-39.823112013423724 126.35094851580207-61.765308452410956 199.961659186854-61.76530481682456 73.61071067105195 0 144.6831203473113 21.942196438987253 199.961659186854 61.76530481682456 50.31475273201895 36.21308377035937 80.3795109001078 83.4818767628618 80.3795109001078 126.40735827462593 0 42.98188399941522-30.064758168088872 90.25067699191766-80.3795109001078 126.40735827462593C667.3207600289423 533.3898269566287 596.3047564759204 555.3884331544399 522.637639681631 555.3884331544399z m0.22562812853642827-65.43174281871283c71.97491491923226 0 130.52504526241424-54.26322135009474 130.52504162682786-121.27435016180334 0-66.84191044199606-58.55012670759556-121.27435016180334-130.52504162682786-121.27435016180334-71.91850879599475 0-130.46863550359032 54.43243971980724-130.46863913917682 121.27435016180334 0 66.89831656523359 58.55012670759556 121.27435016180334 130.46863913917682 121.27435016180334z"  horiz-adv-x="1055" />

    
    <glyph glyph-name="shouji" unicode="&#58963;" d="M394.395 100.109c-26.407 0-47.89-21.482-47.89-47.891 0-26.407 21.484-47.891 47.89-47.891 26.408 0 47.893 21.483 47.893 47.891-0.001 26.409-21.485 47.891-47.893 47.891zM631.334 853.931H157.458c-39.865 0-72.298-32.433-72.298-72.298v-795.266c0-39.866 32.433-72.298 72.298-72.298h473.875c39.865 0 72.297 32.432 72.297 72.298V781.633c0.001 39.865-32.431 72.298-72.296 72.298zM157.458 805.732h473.875c13.289 0 24.1-10.812 24.1-24.1v-595.808H133.359V781.633c0 13.288 10.811 24.099 24.099 24.099z m473.876-843.463H157.458c-13.288 0-24.1 10.81-24.1 24.099V133.5h522.075v-147.133c0.001-13.289-10.81-24.098-24.099-24.098z"  horiz-adv-x="1024" />

    
    <glyph glyph-name="guanbiicon" unicode="&#58885;" d="M513 383m-415 0a415 415 0 1 1 830 0 415 415 0 1 1-830 0ZM649.9 206.9l-313 313c-10.8 10.8-10.8 28.4 0 39.1 10.8 10.8 28.4 10.8 39.1 0l313-313c10.8-10.8 10.8-28.4 0-39.1-10.7-10.7-28.3-10.7-39.1 0zM336.9 246.1l313 313c10.8 10.8 28.4 10.8 39.1 0 10.8-10.8 10.8-28.4 0-39.1L376 207c-10.8-10.8-28.4-10.8-39.1 0-10.7 10.7-10.7 28.3 0 39.1z"  horiz-adv-x="1024" />

    
    <glyph glyph-name="xiangshang" unicode="&#58899;" d="M870.7 182.3c-6.5 0-13 2.5-17.9 7.4L512 530.5 171.2 189.7c-9.9-9.9-25.9-9.9-35.8 0-9.9 9.9-9.9 25.9 0 35.8L484 574.1c7.5 7.5 17.4 11.6 28 11.6 10.6 0 20.6-4.1 28-11.6l348.5-348.5c9.9-9.9 9.9-25.9 0-35.8-4.9-5-11.3-7.5-17.8-7.5z"  horiz-adv-x="1024" />

    
    <glyph glyph-name="suotou" unicode="&#58911;" d="M486.4 286.72h51.2v-138.24h-51.2zM371.2 442.88H320v102.4c0 102.4 81.92 184.32 184.32 184.32s184.32-81.92 184.32-184.32v-61.44h-51.2v61.44c0 74.24-58.88 133.12-133.12 133.12-74.24 0-133.12-58.88-133.12-133.12v-102.4zM463.36 302.08a48.64 48.64 0 1 1 97.28 0 48.64 48.64 0 1 1-97.28 0zM724.48 2.56H299.52c-33.28 0-58.88 25.6-58.88 58.88v332.8c0 33.28 25.6 58.88 58.88 58.88h422.4c33.28 0 58.88-25.6 58.88-58.88v-332.8c2.56-33.28-25.6-58.88-56.32-58.88zM299.52 404.48c-5.12 0-7.68-2.56-7.68-7.68V64c0-5.12 2.56-7.68 7.68-7.68h422.4c5.12 0 7.68 2.56 7.68 7.68V396.8c0 5.12-2.56 7.68-7.68 7.68h-422.4z"  horiz-adv-x="1024" />

    
    <glyph glyph-name="gou" unicode="&#58886;" d="M964.608 673.792c0 13.312-8.192 21.504-21.504 21.504-4.096 0-12.288-4.096-17.408-8.192l0 0-545.792-563.2L80.896 421.888c-4.096 0-8.192 4.096-12.288 4.096-13.312 0-21.504-8.192-21.504-21.504 0-4.096 4.096-13.312 4.096-13.312l311.296-311.296c4.096-4.096 8.192-4.096 13.312-4.096 4.096 0 13.312 4.096 17.408 8.192l0 0 563.2 576.512 0 0C960.512 665.6 964.608 669.696 964.608 673.792z"  horiz-adv-x="1024" />

    
    <glyph glyph-name="fangzi" unicode="&#58883;" d="M51.2 370.03636400000005c-6.981818 0-13.963636 2.327273-18.618182 9.309091-9.309091 9.309091-6.981818 25.6 2.327273 32.581818L512 807.563636c9.309091 6.981818 20.945455 6.981818 30.254545 0l453.818182-384c9.309091-9.309091 11.636364-23.272727 2.327273-32.581818s-23.272727-11.636364-32.581818-2.327273l-439.854546 372.363637L65.163636 374.69090900000003c-4.654545-4.654545-9.309091-4.654545-13.963636-4.654545zM851.78181799-30.64242433000004H214.109091c-13.963636 0-23.272727 9.309091-23.272727 23.272727v512c0 13.963636 9.309091 23.272727 23.272727 23.272728s23.272727-9.309091 23.27272699-23.272728v-488.727272h591.12727301v488.727272c0 13.963636 9.309091 23.272727 23.27272699 23.272728s23.272727-9.309091 23.27272701-23.272728v-512c0-13.963636-11.636364-23.272727-23.27272701-23.272727zM640-11.636363999999958c-13.963636 0-23.272727 9.309091-23.272727 23.272728v151.272727c0 72.145455-44.218182 132.654545-97.745455 132.654545s-97.745455-60.509091-97.745454-132.654545V11.636363999999958c0-13.963636-9.309091-23.272727-23.272728-23.272728s-23.272727 9.309091-23.272727 23.272728v151.272727c0 97.745455 65.163636 179.2 144.290909 179.2 79.127273 0 144.290909-81.454545 144.290909-179.2V11.636363999999958c0-11.636364-11.636364-23.272727-23.272727-23.272728z"  horiz-adv-x="1024" />

    
    <glyph glyph-name="gou1" unicode="&#58935;" d="M514.346667-110.677333c-270.549333 0-490.666667 220.117333-490.666667 490.666666s220.117333 490.666667 490.666667 490.666667 490.666667-220.117333 490.666666-490.666667-220.117333-490.666667-490.666666-490.666666z m0 938.666666c-247.04 0-448-200.96-448-448s200.96-448 448-448 448 200.96 448 448-200.96 448-448 448zM770.602667 540.202667l-30.165334 30.165333-271.616-271.530667-180.565333 180.565334-30.165333-30.165334 211.157333-211.157333 30.165333 30.165333-0.426666 0.426667z"  horiz-adv-x="1024" />

    
    <glyph glyph-name="guojizhan" unicode="&#58979;" d="M1445.581711 628.023738c-33.002003 91.085527-169.630294 113.526889-342.560788 93.725688A510.210961 510.210961 0 0 1 209.326691 397.009719C66.097999 301.963952-26.307609 195.037463 6.694394 103.951936s180.190935-114.846969 363.68207-91.085528a509.550921 509.550921 0 0 1 858.052069 311.538906c152.469252 100.326088 251.47526 209.892737 217.153178 303.618424zM778.281217 222.759145c-411.204953-149.829092-660.040054-126.06765-675.220975-83.165046-7.920481 21.121282 29.701802 73.264446 117.487129 139.268451a524.071803 524.071803 0 0 1 19.141162-66.004005c4.62028-11.880721 9.240561-23.761442 14.520881-35.642163a1795.308946 1795.308946 0 0 1 499.650321 114.186929 1790.688665 1790.688665 0 0 1 456.747717 233.654179c-3.96024 12.540761-7.260441 25.081522-11.880721 36.962243a520.771602 520.771602 0 0 1-29.041762 66.004005c109.566649 5.94036 172.270454-10.560641 179.530894-31.681922 15.840961-46.202804-161.049773-223.753578-570.934646-373.582671z"  horiz-adv-x="1456" />

    
    <glyph glyph-name="denglu" unicode="&#59146;" d="M634.342 306.978c105.11-41.118 185.376-133.808 207.609-249.08 2.965-15.374-7.095-30.241-22.469-33.206-15.374-2.965-30.24 7.094-33.205 22.468-25.155 130.425-139.813 226.122-274.22 226.122-134.407 0-249.067-95.7-274.22-226.125-2.965-15.374-17.831-25.434-33.205-22.47-15.374 2.966-25.434 17.832-22.469 33.206 22.23 115.275 102.498 207.967 207.61 249.085-76.52 42.89-128.237 124.79-128.237 218.77 0 138.402 112.16 250.602 250.522 250.602 138.36 0 250.52-112.2 250.52-250.602 0-93.98-51.716-175.88-128.236-218.77z m71.537 218.77c0 107.092-86.78 193.902-193.821 193.902-107.043 0-193.822-86.81-193.822-193.902 0-107.09 86.779-193.9 193.822-193.9 107.042 0 193.82 86.81 193.82 193.9z"  horiz-adv-x="1024" />

    
    <glyph glyph-name="jiaju" unicode="&#58960;" d="M190.9 520c46.8-22.4 81.8-54 105.4-94.8 6.7-11.5 20.3-17.3 33-13.1 57.3 18.7 119.2 28.5 182 28.5s124.8-9.7 182-28.5c12.7-4.1 26.3 1.6 33 13.1C750 466 785.1 497.5 831.7 520c31.6 15.2 51.1 47.9 51.1 83v3.7c0 62.9-51.5 114.3-114.3 114.3H254.1c-62.9 0-114.3-51.5-114.3-114.3v-3.7c-0.1-35.1 19.4-67.7 51.1-83z m0 0M922.9 454.9c-2.8 3.3-6.9 6.6-11.5 9.6-16.1 10.9-37.2 12.7-54.6 4.1-49.8-24.2-81.9-60.7-97.7-110.5-2.5-7.7-8.1-14-15.5-17.4-7.4-3.3-15.9-3.3-23.3-0.1-63 27.9-135.2 42.7-208.9 42.7-73.6 0-145.8-14.8-208.8-42.7-7.4-3.2-15.9-3.2-23.3 0.1-7.4 3.4-13.1 9.6-15.5 17.4-15.9 49.8-47.9 86.4-97.7 110.5-17.5 8.5-38.5 6.7-54.6-4.1-4.5-3-8.6-6.3-11.4-9.6-24.8-28.8-20.8-72.6 6-99.4l34-34v-145.6c0-23.6 19.3-42.9 42.9-42.9h657.5c23.6 0 42.9 19.3 42.9 42.9V321.4l34 34c26.3 26.9 30.3 70.7 5.5 99.5zM754.3 104.2h-57.2c-15.7 0-28.6-12.9-28.6-28.6s12.9-28.6 28.6-28.6h57.2c15.7 0 28.6 12.9 28.6 28.6s-12.9 28.6-28.6 28.6z m-428.8 0h-57.2c-15.7 0-28.6-12.9-28.6-28.6s12.9-28.6 28.6-28.6h57.2c15.7 0 28.6 12.9 28.6 28.6s-12.9 28.6-28.6 28.6z m0 0"  horiz-adv-x="1024" />

    
    <glyph glyph-name="gouwuche" unicode="&#58880;" d="M367.1 145.5q17.1 0 32.4-6.3t27-17.55 18-26.55 6.3-32.4-6.3-32.4-18-26.55-27-18-32.4-6.75q-18 0-32.85 6.75t-26.55 18-18 26.55-6.3 32.4 6.3 32.4 18 26.55 26.55 17.55 32.85 6.3zM741.5 143.70000000000005q17.1 0 32.85-6.3t27-17.55 18-26.55 6.75-32.4-6.75-32.4-18-26.55-27-18-32.85-6.75-32.4 6.75-26.55 18-18 26.55-6.75 32.4 6.75 32.4 18 26.55 26.55 17.55 32.4 6.3zM892.7 654.9q25.2 0 39.15-6.75t19.8-16.65 5.4-21.15-3.15-19.35-11.25-33.3-19.35-55.35-21.15-59.85-15.75-46.8q-11.7-36-29.7-49.95t-44.1-13.95l-30.6 0-58.5 0-76.5 0-83.7 0-223.2 0 13.5-81 453.6 0q43.2 0 43.2-36.9 0-18-8.55-31.05t-33.75-13.05l-43.2 0-83.7 0-103.5 0-105.3 0-86.4 0-49.5 0q-18 0-30.15 8.1t-20.25 21.15-13.05 28.35-7.65 28.8q-0.9 5.4-4.95 26.1t-9.9 51.75-13.05 69.3-14.4 76.95q-17.1 90.9-38.7 202.5l-67.5 0q-13.5 0-22.5 6.75t-14.85 16.2-8.1 20.25-2.25 19.8q0 18 12.15 29.7t32.85 11.7l19.8 0 18 0 22.5 0 30.6 0q18 0 28.8-5.4t17.1-13.5 9-17.1 4.5-15.3q1.8-7.2 3.6-20.25t3.6-26.55q2.7-16.2 5.4-34.2l615.6 0z"  horiz-adv-x="1024" />

    
    <glyph glyph-name="icon-test" unicode="&#58889;" d="M408.8 404.5h-129c-47 0-85.3 38.2-85.3 85.3v129c0 47 38.2 85.3 85.3 85.3h129c47 0 85.3-38.2 85.3-85.3v-129c-0.1-47.1-38.3-85.3-85.3-85.3z m-129 242.7c-15.7 0-28.4-12.7-28.4-28.4v-129c0-15.7 12.7-28.4 28.4-28.4h129c15.7 0 28.4 12.7 28.4 28.4v129c0 15.7-12.7 28.4-28.4 28.4h-129zM744.2 404.5h-129c-47 0-85.3 38.2-85.3 85.3v129c0 47 38.2 85.3 85.3 85.3h129c47 0 85.3-38.2 85.3-85.3v-129c0-47.1-38.3-85.3-85.3-85.3z m-129 242.7c-15.7 0-28.4-12.7-28.4-28.4v-129c0-15.7 12.7-28.4 28.4-28.4h129c15.7 0 28.4 12.7 28.4 28.4v129c0 15.7-12.7 28.4-28.4 28.4h-129zM408.8 64h-129c-47 0-85.3 38.2-85.3 85.3v129c0 47 38.2 85.3 85.3 85.3h129c47 0 85.3-38.2 85.3-85.3v-129c-0.1-47.1-38.3-85.3-85.3-85.3z m-129 242.7c-15.7 0-28.4-12.7-28.4-28.4v-129c0-15.7 12.7-28.4 28.4-28.4h129c15.7 0 28.4 12.7 28.4 28.4v129c0 15.7-12.7 28.4-28.4 28.4h-129zM744.2 64h-129c-47 0-85.3 38.2-85.3 85.3v129c0 47 38.2 85.3 85.3 85.3h129c47 0 85.3-38.2 85.3-85.3v-129c0-47.1-38.3-85.3-85.3-85.3z m-129 242.7c-15.7 0-28.4-12.7-28.4-28.4v-129c0-15.7 12.7-28.4 28.4-28.4h129c15.7 0 28.4 12.7 28.4 28.4v129c0 15.7-12.7 28.4-28.4 28.4h-129z"  horiz-adv-x="1024" />

    
    <glyph glyph-name="icon-test-copy" unicode="&#58887;" d="M808.6 492.8c0 178.8-129.8 308.5-308.5 308.5-170.1 0-308.5-138.4-308.5-308.5 0-125.6 170.6-338.3 262.3-452.6l6.8-8.4c9.6-12 24-18.9 39.5-18.9 15.4 0 29.8 6.9 39.5 18.9l6.8 8.4c91.5 114.3 262.1 327 262.1 452.6z m-310.1-89.4c-62.9 0-114 51.1-114 114s51.1 114 114 114 114-51.1 114-114-51.1-114-114-114zM500.1 828.2c-184.9 0-335.4-150.4-335.4-335.4 0-135 174.5-352.5 268.2-469.4l6.7-8.4c14.8-18.4 36.8-29 60.4-29s45.6 10.6 60.4 29l6.8 8.4C661 140.29999999999995 835.4 357.79999999999995 835.4 492.8c0 194.3-141 335.4-335.3 335.4z m0-815.3c-15.4 0-29.8 6.9-39.5 18.9l-6.8 8.4c-91.7 114.3-262.3 327-262.3 452.6 0 170.1 138.4 308.5 308.5 308.5 178.8 0 308.5-129.8 308.5-308.5 0-125.6-170.6-338.3-262.3-452.6l-6.8-8.4c-9.5-12-23.9-18.9-39.3-18.9zM498.5 517.4m-87.2 0a87.2 87.2 0 1 1 174.4 0 87.2 87.2 0 1 1-174.4 0ZM612.5 517.4c0 62.9-51.1 114-114 114s-114-51.1-114-114 51.1-114 114-114 114 51.1 114 114z m-201.2 0c0 48.1 39.1 87.2 87.2 87.2s87.2-39.1 87.2-87.2-39.1-87.2-87.2-87.2-87.2 39.1-87.2 87.2z"  horiz-adv-x="1024" />

    
    <glyph glyph-name="xiangzuojiantou" unicode="&#58902;" d="M512.5 830C263.7 830 62 629.2 62 381.5S263.7-67 512.5-67 963 133.8 963 381.5 761.3 830 512.5 830z m83.8-621.2L554 166.6 338.1 381.5l216.3 215.4 42.4-42.2-173.9-173.2 173.4-172.7z"  horiz-adv-x="1024" />

    
    <glyph glyph-name="kouhong" unicode="&#58881;" d="M492 309v90h-19V589l-90 130-90-130v-190h-21v-90h-20v-340h260V309z m-81.36-40H472v-167.36zM383 648.73l38.11-55L383 555.57l-38.11 38.11zM333 549l50-50 50 50v-150H333z m-21-190h140v-50H312z m-20-90h76l95.33-260H292z m430 40V584h15V799h-73.28L607 742.28V584h15v-275h-50v-340h200V309z m10-40v-127.38L698 269h34z m-85 456.72L680.28 759H697v-135h-50zM662 584h20v-275h-20z m-50-315h44.63L726 9H612z"  horiz-adv-x="1024" />

    
    <glyph glyph-name="guanbi" unicode="&#58904;" d="M941.604141-128a36.743529 36.743529 0 0 0-26.503529 11.504941L11.089318 828.536471a40.478118 40.478118 0 0 0 0 55.41647 36.382118 36.382118 0 0 0 53.007058 0l904.131765-945.091765a40.598588 40.598588 0 0 0-0.481882-55.597176 36.803765 36.803765 0 0 0-26.142118-11.264M37.773553-128A38.369882 38.369882 0 0 0 0.006024-88.967529c0 10.541176 3.975529 20.660706 11.143529 28.069647L916.184847 885.217882a36.442353 36.442353 0 0 0 53.067294-1.505882 40.598588 40.598588 0 0 0 0-53.970824L64.337318-116.555294A36.743529 36.743529 0 0 0 37.773553-128"  horiz-adv-x="1024" />

    
    <glyph glyph-name="shang" unicode="&#58882;" d="M516.36906667-99.26731852c-267.60533333 0-485.45185185 217.84651852-485.45185185 485.45185185s217.84651852 485.45185185 485.45185185 485.45185184 485.45185185-217.84651852 485.45185185-485.45185184-217.84651852-485.45185185-485.45185185-485.45185185z m0 913.74174815c-236.17232592 0-428.2898963-192.11757037-428.2898963-428.2898963S280.19674075-42.10536296999999 516.36906667-42.105362979999995s428.2898963 192.11757037 428.2898963 428.28989631-192.11757037 428.2898963-428.2898963 428.2898963zM516.36906667 100.61748147000003c-15.77718521 0-28.5202963 12.7431111-28.5202963 28.52029632L487.84877037 642.74583703c0 15.77718521 12.7431111 28.5202963 28.5202963 28.5202963s28.5202963-12.7431111 28.5202963-28.5202963L544.88936297 129.13777776999996c0-15.77718521-12.7431111-28.5202963-28.5202963-28.5202963zM687.61220741 443.34648888c-7.28177778 0-14.56355555 2.79134815-20.14625186 8.37404445L516.36906667 602.81742222 365.15081483 451.72053333c-11.16539259-11.16539259-29.24847409-11.16539259-40.41386668 0-11.16539259 11.16539259-11.16539259 29.24847409 0 40.41386667l171.3645037 171.3645037c11.16539259 11.16539259 29.24847409 11.16539259 40.41386667 0l171.3645037-171.3645037c11.16539259-11.16539259 11.16539259-29.24847409 0-40.41386667-5.5826963-5.5826963-12.86447408-8.37404445-20.26761481-8.37404445z"  horiz-adv-x="1024" />

    
    <glyph glyph-name="xiangshangjiantou" unicode="&#59404;" d="M722.944 495.104l-176.64 163.84v-638.976c0-17.92-14.336-31.744-31.744-31.744-17.92 0-31.744 14.336-31.744 31.744v640L299.008 494.592c-13.312-11.776-33.28-10.752-45.056 2.56-11.776 13.312-10.752 33.28 2.56 45.056L515.584 775.68l251.904-233.472c12.8-11.776 13.824-32.256 1.536-45.056-13.312-13.312-33.28-14.336-46.08-2.048z"  horiz-adv-x="1024" />

    
    <glyph glyph-name="guanbi1" unicode="&#58903;" d="M0 384c0-282.624 229.376-512 512-512s512 229.376 512 512S794.624 896 512 896 0 666.624 0 384zM113.664 384c0-220.16 178.176-398.336 398.336-398.336S910.336 163.84 910.336 384 732.16 782.336 512 782.336 113.664 604.16 113.664 384zM722.432 585.216c10.752-10.752 10.752-29.696 0-40.448L360.448 182.784c-10.752-10.752-29.696-10.752-40.448 0-10.752 10.752-10.752 29.696 0 40.448l361.984 361.984c11.264 10.752 29.696 10.752 40.448 0zM320.512 585.216c10.752 10.752 29.696 10.752 40.448 0l361.984-361.984c10.752-10.752 10.752-29.696 0-40.448-10.752-10.752-29.696-10.752-40.448 0L320.512 544.768c-10.752 10.752-10.752 29.696 0 40.448z"  horiz-adv-x="1024" />

    
    <glyph glyph-name="icon-test1" unicode="&#58943;" d="M760.96841-102.56046300000003c-142.295079 0-258.063097 115.789342-258.063098 258.105745 0 142.209783 115.768018 257.892505 258.063098 257.892506 68.919181 0 133.72283-26.825597 182.469503-75.508299a256.165261 256.165261 0 0 0 75.57227-182.384207c-0.021324-142.316403-115.789342-258.105745-258.041773-258.105745z m0.042648 473.328918c-118.796027 0-215.457737-96.55509-215.457738-215.244497 0-118.796027 96.619062-215.457737 215.41509-215.457737 118.753379 0 215.393765 96.640386 215.393765 215.457737-0.021324 118.689407-96.619062 215.244497-215.351117 215.244497zM521.179984-127.80808400000001c-3.475813 0-6.717061 0.42648-9.787718 1.27944-10.043606-2.430936-22.091668-0.575748-36.037567 5.522917C354.618188-68.31411300000002 0 345.606131 0 525.687345 0 729.864684 145.024552 896 323.293226 896 391.060911 896 455.864559 871.520043 511.776098 824.991066 567.517045 871.520043 632.256721 896 700.15235 896 878.463672 896 1023.552196 729.864684 1023.552196 525.687345c0-50.879074-26.399117-120.608567-78.493659-207.290644a21.324004 21.324004 0 0 0-36.570667 21.942401C955.869807 419.173945 980.904188 483.273901 980.904188 525.687345 980.904188 706.365632 854.96462 853.351992 700.15235 853.351992c-62.863164 0-122.996856-25.034381-173.811957-72.37367a21.324004 21.324004 0 0 0-29.043294-0.021324C446.247433 828.3176109999999 386.071094 853.351992 323.293226 853.351992 168.544928 853.351992 42.648008 706.365632 42.648008 525.687345c0-111.823077 179.484142-364.363258 340.544345-521.094688 80.199579-78.003207 110.842173-88.004165 117.431291-89.304929 6.823681 4.200829 15.523875 4.179505 22.326232 0.021324 5.650861 1.130172 28.382249 8.57225 83.696716 57.958643a21.324004 21.324004 0 0 0 28.403574-31.815414c-52.606318-46.955457-88.750505-69.260365-113.870182-69.260365zM849.079195 124.92401199999995H672.772329a21.324004 21.324004 0 1 0 0 42.648009h176.306866a21.324004 21.324004 0 1 0 0-42.648009zM761.011058 42.22952499999997a21.324004 21.324004 0 0 0-21.324004 21.324004v183.919535a21.324004 21.324004 0 1 0 42.648008 0v-183.919535a21.324004 21.324004 0 0 0-21.324004-21.324004z"  horiz-adv-x="1024" />

    
    <glyph glyph-name="sousuo" unicode="&#58905;" d="M754.4 151.4l-101 101c39.9 42.3 65.8 98.7 65.8 159.8 0 126.9-101 227.9-225.5 227.9-122.2 2.3-223.2-101-223.2-225.5s101-227.9 225.5-227.9c49.3 0 96.3 16.4 133.9 44.6l101-103.4 23.5 23.5zM305.7 414.5c0 105.7 84.6 192.6 190.3 192.6 105.7 0 190.3-86.9 190.3-192.6 0-105.7-86.9-195-192.6-195-103.5 0-188 86.9-188 195z m0 0"  horiz-adv-x="1024" />

    
    <glyph glyph-name="changyongtubiao-xianxingdaochu-zhuanqu-" unicode="&#59210;" d="M353.6384 383.5392l351.3856 351.3856a30.72 30.72 0 0 1-43.4688 43.3152L288.4608 405.248a30.72 30.72 0 0 1 0-43.4176l373.0944-373.0944a30.72 30.72 0 0 1 43.4688 43.4176z"  horiz-adv-x="1024" />

    


  </font>
</defs>
</svg>
